#!OML:ASF X:\für Bonn\!DataBase\2005_08_11_Bastian_Final\c3d\Bastian.ASF
:FULLY-SPECIFIED
:DEGREES
441
root -2.32156 1.13322 21.4556 -1004.48 -1.95898 -182.809
lowerback 18.3259 -5.16921 1.33091
upperback 22.4645 -1.71336 -1.47898
thorax 15.3929 2.44092 -1.53514
lowerneck 8.92429 -1.78915 -10.153
upperneck 12.1702 -2.38926 6.01539
head 2.40312 -0.962761 3.52975
rclavicle 7.95139e-015 -4.92986e-014
rhumerus -41.9327 48.5788 -78.5568
rradius 52.4913
rwrist -4.31304
rhand -19.9755 3.17981
rfingers 7.12502
rthumb 6.36343 -26.7046
lclavicle 7.95139e-015 -4.92986e-014
lhumerus -45.0985 -19.4629 75.5574
lradius 48.428
lwrist 1.85025
lhand -25.3829 -12.7842
lfingers 7.12502
lthumb 1.14175 17.1925
rfemur 3.81401 4.60298 25.1989
rtibia 32.6408
rfoot -8.21553 -20.5813
rtoes -9.17669
lfemur 4.96949 -0.829004 -16.7671
ltibia 27.3324
lfoot 12.2267 -0.29893
ltoes -10.2437
442
root -2.32042 1.13295 21.4617 -1004.53 -1.95822 -182.766
lowerback 17.9668 -5.07795 1.41298
upperback 22.2837 -1.71121 -1.44288
thorax 15.3335 2.37995 -1.56385
lowerneck 8.73917 -1.84571 -10.2462
upperneck 12.219 -2.47321 6.09012
head 2.45496 -1.00978 3.56678
rclavicle -1.90833e-014 1.11319e-014
rhumerus -41.9766 49.4279 -79.0322
rradius 51.9304
rwrist -4.91479
rhand -19.8166 3.12892
rfingers 7.12502
rthumb 6.51684 -26.7508
lclavicle -1.90833e-014 1.11319e-014
lhumerus -44.6385 -20.3692 75.8049
lradius 47.5201
lwrist 2.45743
lhand -24.8568 -12.9161
lfingers 7.12502
lthumb 1.64985 17.0573
rfemur 3.92421 4.59565 25.1907
rtibia 32.5771
rfoot -8.39749 -20.7047
rtoes -9.17234
lfemur 5.05384 -0.884793 -16.7761
ltibia 27.3061
lfoot 12.0944 -0.235176
ltoes -10.4877
443
root -2.31892 1.1328 21.4673 -1004.57 -1.94647 -182.706
lowerback 17.67 -4.99784 1.46882
upperback 22.0816 -1.72585 -1.39288
thorax 15.2111 2.30295 -1.56241
lowerneck 8.60131 -1.89909 -10.2912
upperneck 12.2377 -2.54728 6.08609
head 2.48882 -1.05182 3.5715
rclavicle -1.59028e-015 6.36111e-015
rhumerus -42.1461 50.2375 -79.5466
rradius 51.3909
rwrist -5.40732
rhand -19.6395 3.11654
rfingers 7.12502
rthumb 6.68783 -26.7578
lclavicle -1.59028e-015 6.36111e-015
lhumerus -44.219 -21.2275 76.097
lradius 46.573
lwrist 3.00402
lhand -24.4313 -13.0443
lfingers 7.12502
lthumb 2.0608 16.9255
rfemur 4.04519 4.69266 25.2313
rtibia 32.5107
rfoot -8.67967 -20.9291
rtoes -9.03867
lfemur 5.13868 -0.950503 -16.7731
ltibia 27.2708
lfoot 11.9385 -0.206704
ltoes -10.7008
444
root -2.3168 1.13296 21.4728 -1004.62 -1.94146 -182.622
lowerback 17.4072 -4.9234 1.51235
upperback 21.8921 -1.7366 -1.34282
thorax 15.0901 2.23293 -1.55199
lowerneck 8.32529 -1.96636 -10.3493
upperneck 12.3183 -2.63469 6.11609
head 2.56423 -1.10052 3.58787
rclavicle -7.15625e-015 1.98785e-014
rhumerus -42.3276 50.9965 -80.077
rradius 50.8633
rwrist -5.89429
rhand -19.5455 3.04106
rfingers 7.12502
rthumb 6.77854 -26.8304
lclavicle -7.15625e-015 1.98785e-014
lhumerus -43.6943 -22.0409 76.3808
lradius 45.5888
lwrist 3.54435
lhand -24.0367 -13.1392
lfingers 7.12502
lthumb 2.44192 16.8265
rfemur 4.17812 4.79314 25.2679
rtibia 32.4344
rfoot -8.96373 -21.1755
rtoes -8.81456
lfemur 5.2176 -0.995647 -16.769
ltibia 27.2415
lfoot 11.7958 -0.178531
ltoes -10.8582
445
root -2.31544 1.13405 21.4778 -1004.65 -1.94579 -182.545
lowerback 17.1498 -4.8503 1.5369
upperback 21.7019 -1.74781 -1.29116
thorax 14.9677 2.16084 -1.52891
lowerneck 8.00261 -2.03985 -10.3634
upperneck 12.4009 -2.72315 6.10507
head 2.64686 -1.14962 3.58354
rclavicle -4.77083e-015 -2.54444e-014
rhumerus -42.5094 51.7087 -80.5696
rradius 50.3575
rwrist -6.3417
rhand -19.4402 2.94095
rfingers 7.12502
rthumb 6.88021 -26.9272
lclavicle -4.77083e-015 -2.54444e-014
lhumerus -43.1937 -22.8193 76.694
lradius 44.6415
lwrist 4.0748
lhand -23.695 -13.1363
lfingers 7.12502
lthumb 2.77194 16.8254
rfemur 4.2949 4.87409 25.2811
rtibia 32.3551
rfoot -9.26325 -21.4287
rtoes -8.31464
lfemur 5.29393 -1.08829 -16.7903
ltibia 27.1992
lfoot 11.6302 -0.114756
ltoes -10.9066
446
root -2.31276 1.13573 21.4841 -1004.67 -1.94536 -182.449
lowerback 16.9357 -4.77424 1.53292
upperback 21.4873 -1.75984 -1.21864
thorax 14.7904 2.07843 -1.46767
lowerneck 7.68666 -0.649496 -10.1952
upperneck 12.3337 -3.13422 6.35578
head 2.66194 -2.36878 3.58431
rclavicle 9.54166e-015 -2.06736e-014
rhumerus -42.8367 52.3506 -81.1117
rradius 49.9104
rwrist -6.75483
rhand -19.3237 2.87784
rfingers 7.12502
rthumb 6.99267 -26.9867
lclavicle 9.54166e-015 -2.06736e-014
lhumerus -42.8074 -23.5601 77.0641
lradius 43.7648
lwrist 4.55628
lhand -23.4559 -12.9981
lfingers 7.12502
lthumb 3.00285 16.9606
rfemur 4.40976 4.93316 25.2956
rtibia 32.2599
rfoot -9.56398 -21.681
rtoes -7.95313
lfemur 5.35631 -1.14741 -16.7965
ltibia 27.1632
lfoot 11.4909 -0.0921022
ltoes -11.0533
447
root -2.31135 1.13717 21.4889 -1004.7 -1.96891 -182.35
lowerback 16.749 -4.70432 1.49807
upperback 21.2928 -1.76891 -1.14593
thorax 14.6289 2.0012 -1.3866
lowerneck 7.27574 -0.759854 -10.2627
upperneck 12.4611 -3.22508 6.3373
head 2.77428 -2.40311 3.58344
rclavicle -7.95139e-015 -3.97569e-015
rhumerus -43.1114 52.9694 -81.6074
rradius 49.4344
rwrist -7.10683
rhand -19.3029 2.80422
rfingers 7.12502
rthumb 7.01274 -27.0596
lclavicle -7.95139e-015 -3.97569e-015
lhumerus -42.3857 -24.2089 77.4234
lradius 42.923
lwrist 4.97802
lhand -23.2445 -12.7339
lfingers 7.12502
lthumb 3.20694 17.2217
rfemur 4.53401 5.03438 25.2939
rtibia 32.1684
rfoot -9.91104 -22.0307
rtoes -7.43531
lfemur 5.42824 -1.24084 -16.8416
ltibia 27.1041
lfoot 11.3337 -0.0518805
ltoes -11.1378
448
root -2.3097 1.13937 21.4946 -1004.7 -1.94673 -182.236
lowerback 16.5537 -4.63717 1.51495
upperback 21.0826 -1.78266 -1.06787
thorax 14.4499 1.92549 -1.32904
lowerneck 6.85721 -0.875791 -10.23
upperneck 12.6105 -3.31722 6.28217
head 2.89277 -2.43612 3.55424
rclavicle 1.66979e-014 -1.82882e-014
rhumerus -43.3984 53.4598 -82.1411
rradius 48.9014
rwrist -7.44131
rhand -19.295 2.78388
rfingers 7.12502
rthumb 7.0204 -27.0797
lclavicle 1.66979e-014 -1.82882e-014
lhumerus -42.0712 -24.942 77.7891
lradius 42.2325
lwrist 5.45908
lhand -23.0681 -12.3702
lfingers 7.12502
lthumb 3.37734 17.5828
rfemur 4.63465 5.06573 25.3186
rtibia 32.0659
rfoot -10.2078 -22.3898
rtoes -7.244
lfemur 5.47803 -1.36019 -16.8462
ltibia 27.0435
lfoot 11.1967 -0.0236632
ltoes -11.1769
